# xmcd
#
# Track frame offsets:
#	150
#	1432
#	13521
#	27412
#	62300
#	76902
#	87998
#	115453
#	178781
#	184717
#	191934
#	197387
#	208043
#	212180
#	255716
#	267250
#	277730
#	292508
#
# Disc length: 3912 seconds
# Revision: 1
# Processed by: cddbd v1.5.2PL0 Copyright (c) Steve Scherf et al.
# Submitted via: dBpowerAMP V12.0
#
DISCID=f50f4612
DTITLE=Hale Dwoskin - The Inner Circle Retreat 03 CD 17
DYEAR=2007
DGENRE=Speech
TTITLE0=Intro Music
TTITLE1=Review of Letting Go
TTITLE2=The Sense of I
TTITLE3=Long Term Relationship Ending
TTITLE4=Instructions - Partnership Release Demonstration
TTITLE5=Wanting Approval, Control, Security, Oneness or Separateness
TTITLE6=The Concept of Me
TTITLE7=The Concept of Responsibility
TTITLE8=Comment on Spirituality
TTITLE9=Organized Religion
TTITLE10=The Victim and the Victimizer Is One Spin
TTITLE11=More about Victims and Victimizers
TTITLE12=Sharing
TTITLE13=Cleanup Release on Religion
TTITLE14=The Dynamics of Thought and Action
TTITLE15=Evil and Satan
TTITLE16=How to Relate to Elders
TTITLE17=Concluding Music
EXTD=
EXTT0=
EXTT1=
EXTT2=
EXTT3=
EXTT4=
EXTT5=
EXTT6=
EXTT7=
EXTT8=
EXTT9=
EXTT10=
EXTT11=
EXTT12=
EXTT13=
EXTT14=
EXTT15=
EXTT16=
EXTT17=
PLAYORDER=
